<?xml version="1.0" encoding="utf-8"?>
<svg version="1.1" xmlns:xlink="http://www.w3.org/1999/xlink" width="35px" height="33px" xmlns="http://www.w3.org/2000/svg">
  <g transform="matrix(1 0 0 1 -84 -49 )">
    <path d="M 34.767578125 23.858398437499996  C 34.922526041666664 24.939778645833332  35 26.089192708333332  35 27.306640625  C 35 28.867838541666668  34.43033854166667 30.20703125  33.291015625 31.32421875  C 32.151692708333336 32.44140625  30.779947916666668 33  29.17578125 33  L 5.82421875 33  C 4.220052083333333 33  2.848307291666667 32.44140625  1.7089843750000002 31.32421875  C 0.5696614583333335 30.20703125  0 28.867838541666668  0 27.306640625  C 0 26.089192708333332  0.07747395833333351 24.939778645833332  0.2324218750000002 23.858398437499996  C 0.38736979166666685 22.77701822916666  0.6744791666666669 21.6884765625  1.0937500000000002 20.5927734375  C 1.5130208333333337 19.4970703125  2.0462239583333335 18.558919270833336  2.693359375 17.778320312500004  C 3.340494791666667 16.997721354166664  4.197265625 16.3603515625  5.263671875 15.866210937500002  C 6.330078125 15.3720703125  7.555989583333334 15.125000000000002  8.94140625 15.125000000000002  C 11.329427083333334 16.958333333333332  14.182291666666668 17.875000000000004  17.5 17.875000000000004  C 20.81770833333334 17.875000000000004  23.670572916666668 16.958333333333332  26.05859375 15.125000000000002  C 27.444010416666668 15.125000000000002  28.669921875 15.3720703125  29.736328125 15.866210937500002  C 30.802734375 16.3603515625  31.659505208333336 16.997721354166664  32.306640625 17.778320312500004  C 32.95377604166667 18.558919270833336  33.486979166666664 19.4970703125  33.90625 20.5927734375  C 34.325520833333336 21.6884765625  34.612630208333336 22.77701822916666  34.767578125 23.858398437499996  Z M 24.923828125 2.4169921875  C 26.974609375 4.0283203125  28 5.972656250000001  28 8.25  C 28 10.527343749999998  26.974609375 12.4716796875  24.923828125 14.0830078125  C 22.873046875 15.6943359375  20.3984375 16.5  17.5 16.5  C 14.6015625 16.5  12.126953125 15.6943359375  10.076171875 14.0830078125  C 8.025390625 12.4716796875  7 10.527343749999998  7 8.25  C 7 5.972656250000001  8.025390625 4.0283203125  10.076171875 2.4169921875  C 12.126953125 0.8056640625  14.6015625 0  17.5 0  C 20.3984375 0  22.873046875 0.8056640625  24.923828125 2.4169921875  Z " fill-rule="nonzero" fill="#7f7f7f" stroke="none" transform="matrix(1 0 0 1 84 49 )" />
  </g>
</svg>